HIERARCHY
ROOT Hips
{
	OFFSET 0.00000 0.00000 0.00000
	CHANNELS 6 Xposition Yposition Zposition Zrotation Yrotation Xrotation 
	JOINT LHipJoint
	{
		OFFSET 0 0 0
		CHANNELS 3 Zrotation Yrotation Xrotation
		JOINT LeftUpLeg
		{
			OFFSET 1.28366 -1.58472 0.87544
			CHANNELS 3 Zrotation Yrotation Xrotation
			JOINT LeftLeg
			{
				OFFSET 2.18587 -6.00562 0.00000
				CHANNELS 3 Zrotation Yrotation Xrotation
				JOINT LeftFoot
				{
					OFFSET 2.39085 -6.56880 0.00000
					CHANNELS 3 Zrotation Yrotation Xrotation
					JOINT LeftToeBase
					{
						OFFSET 0.12003 -0.32979 2.03101
						CHANNELS 3 Zrotation Yrotation Xrotation
						End Site
						{
							OFFSET 0.00000 -0.00000 1.04074
						}
					}
				}
			}
		}
	}
	JOINT RHipJoint
	{
		OFFSET 0 0 0
		CHANNELS 3 Zrotation Yrotation Xrotation
		JOINT RightUpLeg
		{
			OFFSET -1.21795 -1.58472 0.87544
			CHANNELS 3 Zrotation Yrotation Xrotation
			JOINT RightLeg
			{
				OFFSET -2.22714 -6.11902 0.00000
				CHANNELS 3 Zrotation Yrotation Xrotation
				JOINT RightFoot
				{
					OFFSET -2.40306 -6.60235 0.00000
					CHANNELS 3 Zrotation Yrotation Xrotation
					JOINT RightToeBase
					{
						OFFSET -0.15519 -0.42640 1.91430
						CHANNELS 3 Zrotation Yrotation Xrotation
						End Site
						{
							OFFSET -0.00000 -0.00000 0.99082
						}
					}
				}
			}
		}
	}
	JOINT LowerBack
	{
		OFFSET 0 0 0
		CHANNELS 3 Zrotation Yrotation Xrotation
		JOINT Spine
		{
			OFFSET 0.01180 1.76430 -0.06387
			CHANNELS 3 Zrotation Yrotation Xrotation
			JOINT Spine1
			{
				OFFSET -0.00388 1.74651 0.09536
				CHANNELS 3 Zrotation Yrotation Xrotation
				JOINT Neck
				{
					OFFSET 0 0 0
					CHANNELS 3 Zrotation Yrotation Xrotation
					JOINT Neck1
					{
						OFFSET 0.04111 1.46174 0.14397
						CHANNELS 3 Zrotation Yrotation Xrotation
						JOINT Head
						{
							OFFSET 0.00502 1.44580 -0.31711
							CHANNELS 3 Zrotation Yrotation Xrotation
							End Site
							{
								OFFSET -0.00395 1.49251 -0.12327
							}
						}
					}
				}
				JOINT LeftShoulder
				{
					OFFSET 0 0 0
					CHANNELS 3 Zrotation Yrotation Xrotation
					JOINT LeftArm
					{
						OFFSET 2.70917 1.34870 -0.15417
						CHANNELS 3 Zrotation Yrotation Xrotation
						JOINT LeftForeArm
						{
							OFFSET 4.46610 -0.00000 -0.00000
							CHANNELS 3 Zrotation Yrotation Xrotation
							JOINT LeftHand
							{
								OFFSET 3.41414 -0.00000 0.00000
								CHANNELS 3 Zrotation Yrotation Xrotation
								JOINT LeftFingerBase
								{
									OFFSET 0 0 0
									CHANNELS 3 Zrotation Yrotation Xrotation
									JOINT LeftHandIndex1
									{
										OFFSET 0.32830 -0.00000 0.00000
										CHANNELS 3 Zrotation Yrotation Xrotation
										End Site
										{
											OFFSET 0.26468 -0.00000 0.00000
										}
									}
								}
								JOINT LThumb
								{
									OFFSET 0 0 0
									CHANNELS 3 Zrotation Yrotation Xrotation
									End Site
									{
										OFFSET 0.26872 -0.00000 0.26872
									}
								}
							}
						}
					}
				}
				JOINT RightShoulder
				{
					OFFSET 0 0 0
					CHANNELS 3 Zrotation Yrotation Xrotation
					JOINT RightArm
					{
						OFFSET -3.06316 1.13725 -0.10883
						CHANNELS 3 Zrotation Yrotation Xrotation
						JOINT RightForeArm
						{
							OFFSET -4.40431 -0.00000 0.00000
							CHANNELS 3 Zrotation Yrotation Xrotation
							JOINT RightHand
							{
								OFFSET -3.04688 -0.00000 0.00000
								CHANNELS 3 Zrotation Yrotation Xrotation
								JOINT RightFingerBase
								{
									OFFSET 0 0 0
									CHANNELS 3 Zrotation Yrotation Xrotation
									JOINT RightHandIndex1
									{
										OFFSET -0.50049 -0.00000 0.00000
										CHANNELS 3 Zrotation Yrotation Xrotation
										End Site
										{
											OFFSET -0.40351 -0.00000 0.00000
										}
									}
								}
								JOINT RThumb
								{
									OFFSET 0 0 0
									CHANNELS 3 Zrotation Yrotation Xrotation
									End Site
									{
										OFFSET -0.40967 -0.00000 0.40967
									}
								}
							}
						}
					}
				}
			}
		}
	}
}
MOTION
Frames: 14
Frame Time: .0083333
5.1030 15.0826 -9.4595 -180.2400 2.0673 -174.3540 0.0000 0.0000 0.0000 -25.9280 7.4826 -39.7511 5.8158 14.2474 44.2378 0.8957 7.2347 -21.9088 0.3412 3.7538 10.3849 0.0000 0.0000 0.0000 17.1496 4.1212 -34.8917 -13.5303 -18.9653 70.7646 -2.2354 -0.6495 -28.5433 -0.0172 0.8477 -2.3298 4.5598 0.2730 12.3688 -0.1903 1.6870 -8.6764 -3.2848 0.3940 -16.7599 -5.9484 -11.5576 -10.0805 10.1127 -15.6814 -8.0616 3.5698 -8.1080 0.4721 -0.0000 -0.0000 0.0000 -3.2601 -16.0471 57.4450 135.6036 -50.4693 -98.2278 -0.0000 0.0000 -12.9811 56.0781 -15.7469 -21.9758 -7.1250 0.0000 -0.0000 17.7513 4.2253 -17.2615 -0.0000 -0.0000 0.0000 -35.9002 28.9266 -49.8212 -55.4422 54.9677 -30.5777 0.0000 -0.0000 -60.6471 -19.9465 6.4391 -2.3306 7.1250 -0.0000 -0.0000 5.0077 -23.1400 2.6467
5.1226 15.1547 -9.3974 -180.2780 1.6248 -173.7130 0.0000 0.0000 0.0000 -26.0208 6.7519 -39.5179 5.4171 13.8387 42.5950 0.9394 7.0009 -22.1280 0.3000 3.5216 9.7344 0.0000 0.0000 0.0000 17.5850 4.8398 -34.0543 -12.5962 -18.6315 67.8665 -2.2776 -1.3229 -29.0495 -0.0127 0.7276 -1.9995 4.5787 0.2179 12.3481 -0.1243 1.6523 -8.8163 -3.2159 0.3834 -16.9284 -6.1488 -11.6430 -10.4171 10.6502 -15.8316 -8.6087 3.7678 -8.2166 0.4282 -0.0000 0.0000 0.0000 -3.3191 -15.4147 57.6134 136.0422 -50.2476 -98.5655 -0.0000 0.0000 -12.8751 56.2343 -15.8281 -22.1935 -7.1250 0.0000 -0.0000 17.8166 4.0244 -17.4017 -0.0000 0.0000 0.0000 -35.7269 27.6605 -51.8644 -52.5309 53.9666 -28.2083 0.0000 -0.0000 -63.4568 -18.4854 5.2290 -1.7452 7.1250 -0.0000 -0.0000 6.1133 -24.4697 3.0486
5.1403 15.2227 -9.3341 -180.3020 1.1619 -173.0450 0.0000 0.0000 0.0000 -26.0831 5.9860 -39.3168 5.0429 13.4320 41.0079 1.0326 6.4950 -22.5883 0.2420 3.1658 8.7408 0.0000 0.0000 0.0000 17.9777 5.5589 -33.2406 -11.6024 -18.2175 64.7230 -2.3163 -2.0755 -29.5766 -0.0072 0.5471 -1.5034 4.6283 0.1533 12.3103 -0.0393 1.6129 -8.9479 -3.1403 0.3700 -17.0765 -6.3735 -11.7266 -10.7371 11.1765 -15.9764 -9.1604 3.9692 -8.3232 0.3813 -0.0000 0.0000 0.0000 -3.3680 -14.7539 57.7954 136.4900 -50.0173 -98.9092 -0.0000 0.0000 -12.8442 56.4019 -15.9330 -22.4507 -7.1250 0.0000 -0.0000 17.8815 3.7809 -17.5566 -0.0000 0.0000 0.0000 -35.4318 26.3882 -53.7157 -49.7047 52.8757 -25.9385 0.0000 -0.0000 -65.9785 -17.2585 4.1058 -1.2743 7.1250 -0.0000 -0.0000 7.0733 -25.6739 3.3345
5.1562 15.2852 -9.2697 -180.3100 0.6811 -172.3520 0.0000 0.0000 0.0000 -26.1186 5.1988 -39.1723 4.7019 13.0401 39.5187 1.1696 5.7203 -23.2393 0.1656 2.6213 7.2262 0.0000 0.0000 0.0000 18.3097 6.3162 -32.4470 -10.5664 -17.7163 61.3651 -2.3624 -2.7684 -30.1393 -0.0012 0.2258 -0.6204 4.7116 0.0866 12.2609 0.0641 1.5799 -9.0714 -3.0635 0.3581 -17.2070 -6.6249 -11.8152 -11.0414 11.6849 -16.1229 -9.7076 4.1712 -8.4301 0.3344 -0.0000 0.0000 0.0000 -3.4018 -14.1009 57.9866 136.9395 -49.7822 -99.2531 -0.0000 0.0000 -12.8823 56.5744 -16.0482 -22.7261 -7.1250 0.0000 -0.0000 17.9461 3.5183 -17.7183 -0.0000 0.0000 0.0000 -35.0384 25.1141 -55.3731 -46.9460 51.6870 -23.7561 0.0000 -0.0000 -68.1902 -16.2706 3.0501 -0.8897 7.1250 -0.0000 -0.0000 7.8758 -26.7832 3.5129
5.1703 15.3413 -9.2043 -180.3010 0.1825 -171.6390 0.0000 0.0000 0.0000 -26.1145 4.3740 -39.1055 4.4033 12.6785 38.1767 1.3369 4.7080 -23.9931 0.0829 1.8571 5.1109 0.0000 0.0000 0.0000 18.5786 7.1208 -31.6875 -9.5122 -17.1263 57.8451 -2.3920 -3.5944 -30.6713 -0.0001 0.0637 -0.1751 4.8304 0.0154 12.2026 0.1855 1.5500 -9.1841 -2.9861 0.3458 -17.3186 -6.8840 -11.9062 -11.3505 12.1624 -16.2685 -10.2298 4.3642 -8.5348 0.2948 -0.0000 0.0000 0.0000 -3.4100 -13.4636 58.1770 137.3894 -49.5428 -99.5960 -0.0000 0.0000 -12.9827 56.7559 -16.1725 -23.0218 -7.1250 0.0000 -0.0000 18.0128 3.2359 -17.8894 -0.0000 0.0000 0.0000 -34.5706 23.8633 -56.8620 -44.2494 50.3954 -21.6589 0.0000 -0.0000 -70.0802 -15.4976 2.0428 -0.5663 7.1250 -0.0000 -0.0000 8.5328 -27.8259 3.6000
5.1827 15.3889 -9.1377 -180.2740 -0.3316 -170.9060 0.0000 0.0000 0.0000 -26.0704 3.5147 -39.1448 4.1537 12.3622 37.0256 1.5352 3.4321 -24.8559 0.0264 1.0485 2.8822 0.0000 0.0000 0.0000 18.7865 7.9636 -30.9840 -8.4819 -16.4625 54.2806 -2.3645 -4.5735 -30.9508 -0.0006 0.1601 -0.4399 5.1279 0.5997 12.1390 0.2375 1.3693 -9.2943 -2.9103 -0.1976 -17.3898 -7.1018 -12.0015 -11.7601 12.9041 -16.3719 -10.7561 4.1928 -8.6221 0.3003 -0.0000 -0.0000 0.0000 -3.3796 -12.8468 58.3647 137.8172 -49.3112 -99.9210 -0.0000 0.0000 -13.0980 56.9440 -16.2946 -23.3221 -7.1250 0.0000 -0.0000 18.0834 2.9519 -18.0659 -0.0000 -0.0000 0.0000 -34.0353 22.6606 -58.1937 -41.6274 49.0051 -19.6589 0.0000 -0.0000 -71.6740 -14.9246 1.0798 -0.2878 7.1250 -0.0000 -0.0000 9.0503 -28.8120 3.6093
5.1939 15.4270 -9.0695 -180.2310 -0.8586 -170.1530 0.0000 0.0000 0.0000 -25.9923 2.6233 -39.3134 3.9561 12.1018 36.0931 1.7458 2.0090 -25.7601 0.0007 0.1731 0.4757 0.0000 0.0000 0.0000 18.9259 8.8589 -30.3486 -7.5262 -15.7594 50.8374 -2.3275 -5.4279 -31.1445 -0.0016 0.2615 -0.7185 5.3169 0.5486 12.0681 0.3855 1.3396 -9.3907 -2.8342 -0.2328 -17.4705 -7.3531 -12.0966 -12.0707 13.3416 -16.5095 -11.2175 4.3406 -8.7195 0.2839 -0.0000 0.0000 0.0000 -3.3110 -12.2708 58.5411 138.2073 -49.0969 -100.2163 -0.0000 0.0000 -13.1921 57.1372 -16.4041 -23.6131 -7.1250 0.0000 -0.0000 18.1602 2.6824 -18.2446 -0.0000 0.0000 0.0000 -33.4452 21.5065 -59.3816 -39.0993 47.5271 -17.7720 0.0000 -0.0000 -73.0049 -14.5138 0.1523 -0.0394 7.1250 -0.0000 -0.0000 9.4535 -29.7556 3.5589
5.2043 15.4560 -8.9992 -180.1770 -1.3924 -169.3860 0.0000 0.0000 0.0000 -25.8834 1.7035 -39.6096 3.8076 11.8999 35.3789 1.9514 0.6167 -26.6633 0.0149 -0.7875 -2.1643 0.0000 0.0000 0.0000 19.0048 9.7952 -29.8150 -6.6864 -15.0620 47.6780 -2.2856 -6.1062 -31.2414 -0.0033 0.3723 -1.0230 5.5232 0.4941 12.0000 0.5472 1.3109 -9.4759 -2.7520 -0.2677 -17.5396 -7.5854 -12.1893 -12.3833 13.7436 -16.6408 -11.6317 4.4739 -8.8109 0.2771 0.0000 -0.0000 0.0000 -3.1986 -11.7370 58.6967 138.5465 -48.9078 -100.4723 -0.0000 0.0000 -13.2464 57.3153 -16.5128 -23.8930 -7.1250 0.0000 -0.0000 18.2283 2.4207 -18.4115 0.0000 -0.0000 0.0000 -32.8043 20.4275 -60.4506 -36.6801 45.9752 -16.0096 0.0000 -0.0000 -74.0883 -14.2322 -0.7411 0.1880 7.1250 -0.0000 -0.0000 9.7643 -30.6610 3.4647
5.2141 15.4786 -8.9260 -180.1250 -1.9305 -168.6070 0.0000 0.0000 0.0000 -25.7560 0.7491 -40.0122 3.7003 11.7505 34.8549 2.1412 -0.5976 -27.5342 0.0810 -1.8355 -5.0513 0.0000 0.0000 0.0000 19.0232 10.7363 -29.4420 -5.9927 -14.4212 44.9523 -2.2369 -6.6664 -31.2487 -0.0056 0.4848 -1.3322 5.7292 0.4410 11.9421 0.7148 1.2864 -9.5495 -2.6639 -0.2993 -17.6006 -7.8066 -12.2883 -12.6830 14.1329 -16.7769 -12.0088 4.6004 -8.9023 0.2788 0.0000 0.0000 0.0000 -3.0535 -11.2662 58.8320 138.8177 -48.7550 -100.6764 -0.0000 0.0000 -13.2374 57.4664 -16.6362 -24.1711 -7.1250 0.0000 -0.0000 18.2772 2.1509 -18.5597 0.0000 0.0000 0.0000 -32.0968 19.4020 -61.3847 -34.4056 44.3830 -14.3960 0.0000 -0.0000 -74.9671 -14.0744 -1.5979 0.4006 7.1250 -0.0000 -0.0000 9.9836 -31.5283 3.3337
5.2233 15.4993 -8.8488 -180.0820 -2.4641 -167.8280 0.0000 0.0000 0.0000 -25.6111 -0.2447 -40.4771 3.6243 11.6430 34.4805 2.3062 -1.5459 -28.3252 0.2079 -2.9358 -8.0999 0.0000 0.0000 0.0000 18.9849 11.6530 -29.2675 -5.4541 -13.8776 42.7494 -2.2007 -7.0939 -31.2680 -0.0067 0.5271 -1.4484 5.9213 0.3820 11.9098 0.8871 1.2550 -9.6088 -2.5611 -0.3307 -17.6619 -8.0110 -12.3795 -12.9476 14.5185 -16.9014 -12.3675 4.7256 -8.9878 0.2790 -0.0000 -0.0000 0.0000 -2.8795 -10.8333 58.9413 139.0277 -48.6355 -100.8342 -0.0000 0.0000 -13.1700 57.5968 -16.7806 -24.4595 -7.1250 0.0000 -0.0000 18.3086 1.8604 -18.6954 -0.0000 -0.0000 0.0000 -31.3162 18.4514 -62.2037 -32.2874 42.7751 -12.9356 0.0000 -0.0000 -75.6385 -14.0036 -2.4037 0.5993 7.1250 -0.0000 -0.0000 10.1358 -32.3440 3.1839
5.2318 15.5216 -8.7665 -180.0540 -2.9911 -167.0560 0.0000 0.0000 0.0000 -25.4401 -1.3021 -40.9548 3.5733 11.5699 34.2268 2.4408 -2.2075 -28.9950 0.3854 -3.9866 -11.0390 0.0000 0.0000 0.0000 18.8960 12.4863 -29.3285 -5.0624 -13.4537 41.0914 -2.1852 -7.4100 -31.3546 -0.0044 0.4267 -1.1724 6.0937 0.3252 11.9226 1.0675 1.2292 -9.6568 -2.4398 -0.3559 -17.7387 -8.2360 -12.4735 -13.1436 14.9231 -17.0238 -12.7346 4.8637 -9.0724 0.2714 0.0000 -0.0000 0.0000 -2.7212 -10.4600 59.0382 139.1786 -48.5491 -100.9473 -0.0000 0.0000 -13.0590 57.6917 -16.9415 -24.7399 -7.1250 0.0000 -0.0000 18.3157 1.5647 -18.8047 0.0000 -0.0000 0.0000 -30.4506 17.5400 -62.8478 -30.3642 41.2035 -11.6488 0.0000 -0.0000 -76.1366 -14.0325 -3.1445 0.7855 7.1250 -0.0000 -0.0000 10.2065 -33.0962 3.0184
5.2397 15.5472 -8.6781 -180.0440 -3.4936 -166.3100 0.0000 0.0000 0.0000 -25.2353 -2.4255 -41.3978 3.5457 11.5300 34.0891 2.5422 -2.5736 -29.5254 0.5911 -4.9223 -13.6870 0.0000 0.0000 0.0000 18.7526 13.2148 -29.6201 -4.7959 -13.1502 39.9332 -2.2042 -7.5634 -31.5580 -0.0002 0.0965 -0.2650 6.2324 0.2539 12.0083 1.2505 1.1871 -9.6821 -2.2935 -0.3823 -17.8372 -8.4201 -12.5446 -13.2960 15.3435 -17.1220 -13.1137 5.0062 -9.1494 0.2512 0.0000 -0.0000 0.0000 -2.5583 -10.0865 59.1091 139.2914 -48.4842 -101.0319 -0.0000 0.0000 -12.9152 57.7622 -17.1041 -25.0022 -7.1250 0.0000 -0.0000 18.3088 1.2805 -18.8935 0.0000 -0.0000 0.0000 -29.4510 16.7281 -63.3790 -28.6435 39.7019 -10.5322 0.0000 -0.0000 -76.4178 -14.1113 -3.8010 0.9547 7.1250 -0.0000 -0.0000 10.2302 -33.7648 2.8575
5.2467 15.5756 -8.5833 -180.0450 -3.9561 -165.6040 0.0000 0.0000 0.0000 -24.9689 -3.6343 -41.7792 3.5480 11.5333 34.1002 2.6054 -2.6832 -29.8782 0.7970 -5.6984 -15.9118 0.0000 0.0000 0.0000 18.5718 13.7938 -30.1293 -4.6223 -12.9454 39.1644 -2.2285 -7.7407 -31.8063 -0.0017 -0.2689 0.7389 6.3352 0.1747 12.1822 1.4427 1.1405 -9.6809 -2.1160 -0.4032 -17.9619 -8.5857 -12.5954 -13.3877 15.7949 -17.1974 -13.5255 5.1626 -9.2206 0.2132 0.0000 0.0000 0.0000 -2.4192 -9.7135 59.1610 139.3823 -48.4316 -101.0999 -0.0000 0.0000 -12.7716 57.8236 -17.2715 -25.2626 -7.1250 0.0000 -0.0000 18.2954 0.9943 -18.9749 0.0000 0.0000 0.0000 -28.3381 15.9904 -63.7812 -27.1096 38.2835 -9.5670 0.0000 -0.0000 -76.5004 -14.2117 -4.3781 1.1076 7.1250 -0.0000 -0.0000 10.2288 -34.3542 2.7086
5.2527 15.6057 -8.4818 -180.0420 -4.3572 -164.9560 0.0000 0.0000 0.0000 -24.6225 -4.9073 -42.0913 3.5891 11.5925 34.3054 2.6261 -2.4319 -30.0591 1.0362 -6.4744 -18.1673 0.0000 0.0000 0.0000 18.3644 14.2323 -30.7912 -4.5079 -12.8072 38.6509 -2.2794 -7.7791 -32.1307 -0.0152 -0.7965 2.1891 6.4077 0.0927 12.4651 1.6462 1.1006 -9.6482 -1.9111 -0.4140 -18.1189 -8.7178 -12.6225 -13.4197 16.2720 -17.2484 -13.9743 5.3302 -9.2869 0.1543 0.0000 0.0000 0.0000 -2.3070 -9.3349 59.2028 139.4651 -48.3836 -101.1619 -0.0000 0.0000 -12.6414 57.8900 -17.4190 -25.5026 -7.1250 0.0000 -0.0000 18.2903 0.7351 -19.0561 0.0000 0.0000 0.0000 -27.0884 15.3342 -64.0544 -25.7682 36.9789 -8.7479 0.0000 -0.0000 -76.4143 -14.3101 -4.8736 1.2415 7.1250 -0.0000 -0.0000 10.2194 -34.8612 2.5783
